<svg id="Camada_1" data-name="Camada 1" xmlns="http://www.w3.org/2000/svg" xmlns:xlink="http://www.w3.org/1999/xlink" viewBox="0 0 170.35 194.82"><defs><style>.cls-1{font-size:21.25px;fill:#010101;font-family:Poppins-Medium, Poppins;font-weight:500;}.cls-2{fill:url(#linear-gradient);}.cls-3{fill:url(#Gradiente_sem_nome_20);}</style><linearGradient id="linear-gradient" x1="36.39" y1="28.48" x2="116.66" y2="108.75" gradientUnits="userSpaceOnUse"><stop offset="0" stop-color="#6a378d"/><stop offset="0.28" stop-color="#95316f"/><stop offset="0.6" stop-color="#c12c50"/><stop offset="0.85" stop-color="#dc283d"/><stop offset="1" stop-color="#e62736"/></linearGradient><linearGradient id="Gradiente_sem_nome_20" x1="100.71" y1="75.76" x2="11.77" y2="57.41" gradientUnits="userSpaceOnUse"><stop offset="0" stop-color="#f6a017"/><stop offset="0.28" stop-color="#f18020"/><stop offset="0.9" stop-color="#e52e35"/><stop offset="1" stop-color="#e32139"/></linearGradient></defs><text class="cls-1" transform="translate(30.98 172.75)">Cartallum</text><path class="cls-2" d="M152.68,79.84a67.78,67.78,0,0,1-65.84,64.95h-.75C74,145,67.46,130.54,75.57,121.51L83.16,113a5.64,5.64,0,0,1,6.25-1.46c4.25,1.65,10.4,2.34,14.64-1.89l16.54-16.55a2.23,2.23,0,0,0-.12-3.28,2.33,2.33,0,0,0-3.16.2l-12.69,12.69a2.25,2.25,0,0,1-1.59.66A2.21,2.21,0,0,1,101,102a2.42,2.42,0,0,1,.59-2.59l12.67-12.66a2.28,2.28,0,0,0,.07-3.11,2.36,2.36,0,0,0-3.35,0l-12.7,12.7a2.24,2.24,0,0,1-1.59.67,2.25,2.25,0,0,1-2.25-2.26,2.22,2.22,0,0,1,.65-1.59l12.67-12.67a2.4,2.4,0,0,0,.59-2.58,2.24,2.24,0,0,0-3.65-.73L92,89.91a2.34,2.34,0,0,1-3.43-.06A2.19,2.19,0,0,1,88,88.42a2.25,2.25,0,0,1,.66-1.59l12.71-12.71a2.32,2.32,0,0,0,.18-3.14,2.21,2.21,0,0,0-1.69-.78,2.26,2.26,0,0,0-1.6.66L81.76,87.4c-4.23,4.24-3.54,10.39-1.89,14.64a5.64,5.64,0,0,1-1.46,6.25l-15.57,14a20.74,20.74,0,0,1-29.82-2A67.55,67.55,0,0,1,83.52,9.73l.76,0C96.4,9.56,102.86,24,94.76,33l-7.85,8.72A5.08,5.08,0,0,1,81.21,43c-4.25-1.74-10.62-2.59-15,1.76l-7,7a15.77,15.77,0,0,0,22.3,22.3l7-7c4.35-4.34,3.51-10.7,1.78-14.94a5.07,5.07,0,0,1,1.33-5.71l15.87-14.19a20.75,20.75,0,0,1,29.8,2.08A67.29,67.29,0,0,1,152.68,79.84Z"/><path class="cls-3" d="M107.51,32.22,91.64,46.41a5.07,5.07,0,0,0-1.33,5.71c1.73,4.24,2.57,10.6-1.78,14.94l-7,7a15.77,15.77,0,0,1-22.3-22.3l7-7c4.34-4.35,10.71-3.5,15-1.76a5.08,5.08,0,0,0,5.7-1.32L94.76,33c8.1-9,1.65-23.41-10.46-23.26-1.23,0-2.45.07-3.7.15A67.55,67.55,0,0,0,32.87,120a20.68,20.68,0,0,0,30,2.24l15.57-14A5.64,5.64,0,0,0,79.87,102c-1.65-4.25-2.34-10.4,1.89-14.64L98.3,70.86l23.54-23.54c9.41-9.41-4-24-14.08-15.32Z"/></svg>